<svg xmlns="http://www.w3.org/2000/svg" viewBox="0 0 1920 911" preserveAspectRatio="xMidYMid" width="1920" height="911" xmlns:xlink="http://www.w3.org/1999/xlink" style="shape-rendering:auto;display:block;background-position-x:0%;background-position-y:0%;background-size:auto;background-origin:padding-box;background-clip:border-box;background:scroll rgb(12, 12, 12) none  repeat;width:1920px;height:911px;;animation:none"><g><g transform="matrix(0.9659258262890683,0.25881904510252074,-0.25881904510252074,0.9659258262890683,150.60328180669262,-141.84549869896944)" style="transform:matrix(0.965926, 0.258819, -0.258819, 0.965926, 150.603, -141.846);;animation:none"><path stroke-width="2" stroke-opacity="0" stroke="rgb(104, 7, 71)" fill="none" d="M -480 -68.5 C 0 -68.5 480 68.5 960 68.5 C 1440 68.5 1920 -68.5 2400 -68.5 C 2880 -68.5 3360 68.5 3840 68.5 C 4320 68.5 4800 -68.5 5280 -68.5" transform="matrix(1,0,0,1,0,0)" style="fill:none;stroke:rgb(104, 7, 71);transform:matrix(1, 0, 0, 1, 0, 0);;animation:none"></path></g>
<g transform="matrix(0.9659258262890683,0.25881904510252074,-0.25881904510252074,0.9659258262890683,150.60328180669262,584.5244735300345)" style="transform:matrix(0.965926, 0.258819, -0.258819, 0.965926, 150.603, 584.524);;animation:none"><path stroke-width="2" stroke-opacity="0" stroke="rgb(104, 7, 71)" fill="none" d="M -480 -68.479 C 0 -68.479 480 68.479 960 68.479 C 1440 68.479 1920 -68.479 2400 -68.479 C 2880 -68.479 3360 68.479 3840 68.479 C 4320 68.479 4800 -68.479 5280 -68.479" transform="matrix(1,0,0,1,-15.359759330749512,0)" style="fill:none;stroke:rgb(104, 7, 71);transform:matrix(1, 0, 0, 1, -15.3598, 0);;animation:none"></path></g>
<g transform="matrix(0.9659258262890683,0.25881904510252074,-0.25881904510252074,0.9659258262890683,150.60328180669262,-136.98549808861787)" style="transform:matrix(0.965926, 0.258819, -0.258819, 0.965926, 150.603, -136.985);;animation:none"><path stroke-width="2" stroke-opacity="0" stroke="rgb(104, 7, 71)" fill="none" d="M -480 -68.4153 C 0 -68.4153 480 68.4153 960 68.4153 C 1440 68.4153 1920 -68.4153 2400 -68.4153 C 2880 -68.4153 3360 68.4153 3840 68.4153 C 4320 68.4153 4800 -68.4153 5280 -68.4153" transform="matrix(1,0,0,1,-30.719518661499023,0)" style="fill:none;stroke:rgb(104, 7, 71);transform:matrix(1, 0, 0, 1, -30.7195, 0);;animation:none"></path></g>
<g transform="matrix(0.9659258262890683,0.25881904510252074,-0.25881904510252074,0.9659258262890683,150.60328180669262,579.664488178472)" style="transform:matrix(0.965926, 0.258819, -0.258819, 0.965926, 150.603, 579.664);;animation:none"><path stroke-width="2" stroke-opacity="0" stroke="rgb(104, 7, 71)" fill="none" d="M -480 -68.3075 C 0 -68.3075 480 68.3075 960 68.3075 C 1440 68.3075 1920 -68.3075 2400 -68.3075 C 2880 -68.3075 3360 68.3075 3840 68.3075 C 4320 68.3075 4800 -68.3075 5280 -68.3075" transform="matrix(1,0,0,1,-46.08000183105469,0)" style="fill:none;stroke:rgb(104, 7, 71);transform:matrix(1, 0, 0, 1, -46.08, 0);;animation:none"></path></g>
<g transform="matrix(0.9659258262890683,0.25881904510252074,-0.25881904510252074,0.9659258262890683,150.60328180669262,-132.1254974782663)" style="transform:matrix(0.965926, 0.258819, -0.258819, 0.965926, 150.603, -132.125);;animation:none"><path stroke-width="2" stroke-opacity="0" stroke="rgb(104, 7, 71)" fill="none" d="M -480 -68.1544 C 0 -68.1544 480 68.1544 960 68.1544 C 1440 68.1544 1920 -68.1544 2400 -68.1544 C 2880 -68.1544 3360 68.1544 3840 68.1544 C 4320 68.1544 4800 -68.1544 5280 -68.1544" transform="matrix(1,0,0,1,-61.43975830078125,0)" style="fill:none;stroke:rgb(104, 7, 71);transform:matrix(1, 0, 0, 1, -61.4398, 0);;animation:none"></path></g>
<g transform="matrix(0.9659258262890683,0.25881904510252074,-0.25881904510252074,0.9659258262890683,150.60328180669262,574.8045028269095)" style="transform:matrix(0.965926, 0.258819, -0.258819, 0.965926, 150.603, 574.805);;animation:none"><path stroke-width="2" stroke-opacity="0" stroke="rgb(104, 7, 71)" fill="none" d="M -480 -67.9547 C 0 -67.9547 480 67.9547 960 67.9547 C 1440 67.9547 1920 -67.9547 2400 -67.9547 C 2880 -67.9547 3360 67.9547 3840 67.9547 C 4320 67.9547 4800 -67.9547 5280 -67.9547" transform="matrix(1,0,0,1,-76.79952239990234,0)" style="fill:none;stroke:rgb(104, 7, 71);transform:matrix(1, 0, 0, 1, -76.7995, 0);;animation:none"></path></g>
<g transform="matrix(0.9659258262890683,0.25881904510252074,-0.25881904510252074,0.9659258262890683,150.60328180669262,-127.26549686791475)" style="transform:matrix(0.965926, 0.258819, -0.258819, 0.965926, 150.603, -127.266);;animation:none"><path stroke-width="2" stroke-opacity="0" stroke="rgb(104, 7, 71)" fill="none" d="M -480 -67.7069 C 0 -67.7069 480 67.7069 960 67.7069 C 1440 67.7069 1920 -67.7069 2400 -67.7069 C 2880 -67.7069 3360 67.7069 3840 67.7069 C 4320 67.7069 4800 -67.7069 5280 -67.7069" transform="matrix(1,0,0,1,-92.16000366210938,0)" style="fill:none;stroke:rgb(104, 7, 71);transform:matrix(1, 0, 0, 1, -92.16, 0);;animation:none"></path></g>
<g transform="matrix(0.9659258262890683,0.25881904510252074,-0.25881904510252074,0.9659258262890683,150.60328180669262,569.944517475347)" style="transform:matrix(0.965926, 0.258819, -0.258819, 0.965926, 150.603, 569.945);;animation:none"><path stroke-width="2" stroke-opacity="0" stroke="rgb(104, 7, 71)" fill="none" d="M -480 -67.4097 C 0 -67.4097 480 67.4097 960 67.4097 C 1440 67.4097 1920 -67.4097 2400 -67.4097 C 2880 -67.4097 3360 67.4097 3840 67.4097 C 4320 67.4097 4800 -67.4097 5280 -67.4097" transform="matrix(1,0,0,1,-107.51976013183594,0)" style="fill:none;stroke:rgb(104, 7, 71);transform:matrix(1, 0, 0, 1, -107.52, 0);;animation:none"></path></g>
<g transform="matrix(0.9659258262890683,0.25881904510252074,-0.25881904510252074,0.9659258262890683,150.60328180669262,-122.41549839379365)" style="transform:matrix(0.965926, 0.258819, -0.258819, 0.965926, 150.603, -122.415);;animation:none"><path stroke-width="2" stroke-opacity="0" stroke="rgb(104, 7, 71)" fill="none" d="M -480 -67.0615 C 0 -67.0615 480 67.0615 960 67.0615 C 1440 67.0615 1920 -67.0615 2400 -67.0615 C 2880 -67.0615 3360 67.0615 3840 67.0615 C 4320 67.0615 4800 -67.0615 5280 -67.0615" transform="matrix(1,0,0,1,-122.8795166015625,0)" style="fill:none;stroke:rgb(104, 7, 71);transform:matrix(1, 0, 0, 1, -122.88, 0);;animation:none"></path></g>
<g transform="matrix(0.9659258262890683,0.25881904510252074,-0.25881904510252074,0.9659258262890683,150.60328180669262,565.0944808542532)" style="transform:matrix(0.965926, 0.258819, -0.258819, 0.965926, 150.603, 565.095);;animation:none"><path stroke-width="2" stroke-opacity="0" stroke="rgb(104, 7, 71)" fill="none" d="M -480 -66.6609 C 0 -66.6609 480 66.6609 960 66.6609 C 1440 66.6609 1920 -66.6609 2400 -66.6609 C 2880 -66.6609 3360 66.6609 3840 66.6609 C 4320 66.6609 4800 -66.6609 5280 -66.6609" transform="matrix(1,0,0,1,-138.24000549316406,0)" style="fill:none;stroke:rgb(104, 7, 71);transform:matrix(1, 0, 0, 1, -138.24, 0);;animation:none"></path></g>
<g transform="matrix(0.9659258262890683,0.25881904510252074,-0.25881904510252074,0.9659258262890683,150.60328180669262,-117.55549778344209)" style="transform:matrix(0.965926, 0.258819, -0.258819, 0.965926, 150.603, -117.555);;animation:none"><path stroke-width="2" stroke-opacity="0" stroke="rgb(104, 7, 71)" fill="none" d="M -480 -66.2062 C 0 -66.2062 480 66.2062 960 66.2062 C 1440 66.2062 1920 -66.2062 2400 -66.2062 C 2880 -66.2062 3360 66.2062 3840 66.2062 C 4320 66.2062 4800 -66.2062 5280 -66.2062" transform="matrix(1,0,0,1,-153.59976196289062,0)" style="fill:none;stroke:rgb(104, 7, 71);transform:matrix(1, 0, 0, 1, -153.6, 0);;animation:none"></path></g>
<g transform="matrix(0.9659258262890683,0.25881904510252074,-0.25881904510252074,0.9659258262890683,150.60328180669262,560.2344955026907)" style="transform:matrix(0.965926, 0.258819, -0.258819, 0.965926, 150.603, 560.234);;animation:none"><path stroke-width="2" stroke-opacity="0" stroke="rgb(104, 7, 71)" fill="none" d="M -480 -65.6959 C 0 -65.6959 480 65.6959 960 65.6959 C 1440 65.6959 1920 -65.6959 2400 -65.6959 C 2880 -65.6959 3360 65.6959 3840 65.6959 C 4320 65.6959 4800 -65.6959 5280 -65.6959" transform="matrix(1,0,0,1,-168.9595184326172,0)" style="fill:none;stroke:rgb(104, 7, 71);transform:matrix(1, 0, 0, 1, -168.96, 0);;animation:none"></path></g>
<g transform="matrix(0.9659258262890683,0.25881904510252074,-0.25881904510252074,0.9659258262890683,150.60328180669262,-112.69549717309053)" style="transform:matrix(0.965926, 0.258819, -0.258819, 0.965926, 150.603, -112.695);;animation:none"><path stroke-width="2" stroke-opacity="0" stroke="rgb(104, 7, 71)" fill="none" d="M -480 -65.1283 C 0 -65.1283 480 65.1283 960 65.1283 C 1440 65.1283 1920 -65.1283 2400 -65.1283 C 2880 -65.1283 3360 65.1283 3840 65.1283 C 4320 65.1283 4800 -65.1283 5280 -65.1283" transform="matrix(1,0,0,1,-184.32000732421875,0)" style="fill:none;stroke:rgb(104, 7, 71);transform:matrix(1, 0, 0, 1, -184.32, 0);;animation:none"></path></g>
<g transform="matrix(0.9659258262890683,0.25881904510252074,-0.25881904510252074,0.9659258262890683,150.60328180669262,555.3745101511282)" style="transform:matrix(0.965926, 0.258819, -0.258819, 0.965926, 150.603, 555.375);;animation:none"><path stroke-width="2" stroke-opacity="0" stroke="rgb(104, 7, 71)" fill="none" d="M -480 -64.5017 C 0 -64.5017 480 64.5017 960 64.5017 C 1440 64.5017 1920 -64.5017 2400 -64.5017 C 2880 -64.5017 3360 64.5017 3840 64.5017 C 4320 64.5017 4800 -64.5017 5280 -64.5017" transform="matrix(1,0,0,1,-199.67974853515625,0)" style="fill:none;stroke:rgb(104, 7, 71);transform:matrix(1, 0, 0, 1, -199.68, 0);;animation:none"></path></g>
<g transform="matrix(0.9659258262890683,0.25881904510252074,-0.25881904510252074,0.9659258262890683,150.60328180669262,-107.83549656273897)" style="transform:matrix(0.965926, 0.258819, -0.258819, 0.965926, 150.603, -107.836);;animation:none"><path stroke-width="2" stroke-opacity="0" stroke="rgb(104, 7, 71)" fill="none" d="M -480 -63.8144 C 0 -63.8144 480 63.8144 960 63.8144 C 1440 63.8144 1920 -63.8144 2400 -63.8144 C 2880 -63.8144 3360 63.8144 3840 63.8144 C 4320 63.8144 4800 -63.8144 5280 -63.8144" transform="matrix(1,0,0,1,-215.03952026367188,0)" style="fill:none;stroke:rgb(104, 7, 71);transform:matrix(1, 0, 0, 1, -215.04, 0);;animation:none"></path></g>
<g transform="matrix(0.9659258262890683,0.25881904510252074,-0.25881904510252074,0.9659258262890683,150.60328180669262,550.5145247995657)" style="transform:matrix(0.965926, 0.258819, -0.258819, 0.965926, 150.603, 550.514);;animation:none"><path stroke-width="2" stroke-opacity="0" stroke="rgb(104, 7, 71)" fill="none" d="M -480 -63.0645 C 0 -63.0645 480 63.0645 960 63.0645 C 1440 63.0645 1920 -63.0645 2400 -63.0645 C 2880 -63.0645 3360 63.0645 3840 63.0645 C 4320 63.0645 4800 -63.0645 5280 -63.0645" transform="matrix(1,0,0,1,-230.39999389648438,0)" style="fill:none;stroke:rgb(104, 7, 71);transform:matrix(1, 0, 0, 1, -230.4, 0);;animation:none"></path></g>
<g transform="matrix(0.9659258262890683,0.25881904510252074,-0.25881904510252074,0.9659258262890683,150.60328180669262,-102.9754959523874)" style="transform:matrix(0.965926, 0.258819, -0.258819, 0.965926, 150.603, -102.976);;animation:none"><path stroke-width="2" stroke-opacity="0" stroke="rgb(104, 7, 71)" fill="none" d="M -480 -62.2502 C 0 -62.2502 480 62.2502 960 62.2502 C 1440 62.2502 1920 -62.2502 2400 -62.2502 C 2880 -62.2502 3360 62.2502 3840 62.2502 C 4320 62.2502 4800 -62.2502 5280 -62.2502" transform="matrix(1,0,0,1,-245.759765625,0)" style="fill:none;stroke:rgb(104, 7, 71);transform:matrix(1, 0, 0, 1, -245.76, 0);;animation:none"></path></g>
<g transform="matrix(0.9659258262890683,0.25881904510252074,-0.25881904510252074,0.9659258262890683,150.60328180669262,545.654478412847)" style="transform:matrix(0.965926, 0.258819, -0.258819, 0.965926, 150.603, 545.654);;animation:none"><path stroke-width="2" stroke-opacity="0" stroke="rgb(104, 7, 71)" fill="none" d="M -480 -61.3698 C 0 -61.3698 480 61.3698 960 61.3698 C 1440 61.3698 1920 -61.3698 2400 -61.3698 C 2880 -61.3698 3360 61.3698 3840 61.3698 C 4320 61.3698 4800 -61.3698 5280 -61.3698" transform="matrix(1,0,0,1,-261.1195373535156,0)" style="fill:none;stroke:rgb(104, 7, 71);transform:matrix(1, 0, 0, 1, -261.12, 0);;animation:none"></path></g>
<g transform="matrix(0.9659258262890683,0.25881904510252074,-0.25881904510252074,0.9659258262890683,150.60328180669262,-98.11549534203584)" style="transform:matrix(0.965926, 0.258819, -0.258819, 0.965926, 150.603, -98.1155);;animation:none"><path stroke-width="2" stroke-opacity="0" stroke="rgb(104, 7, 71)" fill="none" d="M -480 -60.4213 C 0 -60.4213 480 60.4213 960 60.4213 C 1440 60.4213 1920 -60.4213 2400 -60.4213 C 2880 -60.4213 3360 60.4213 3840 60.4213 C 4320 60.4213 4800 -60.4213 5280 -60.4213" transform="matrix(1,0,0,1,-276.4800109863281,0)" style="fill:none;stroke:rgb(104, 7, 71);transform:matrix(1, 0, 0, 1, -276.48, 0);;animation:none"></path></g>
<g transform="matrix(0.9659258262890683,0.25881904510252074,-0.25881904510252074,0.9659258262890683,150.60328180669262,540.7944930612845)" style="transform:matrix(0.965926, 0.258819, -0.258819, 0.965926, 150.603, 540.794);;animation:none"><path stroke-width="2" stroke-opacity="0" stroke="rgb(104, 7, 71)" fill="none" d="M -480 -59.4029 C 0 -59.4029 480 59.4029 960 59.4029 C 1440 59.4029 1920 -59.4029 2400 -59.4029 C 2880 -59.4029 3360 59.4029 3840 59.4029 C 4320 59.4029 4800 -59.4029 5280 -59.4029" transform="matrix(1,0,0,1,-291.83978271484375,0)" style="fill:none;stroke:rgb(104, 7, 71);transform:matrix(1, 0, 0, 1, -291.84, 0);;animation:none"></path></g>
<g transform="matrix(0.9659258262890683,0.25881904510252074,-0.25881904510252074,0.9659258262890683,150.60328180669262,-93.25549473168428)" style="transform:matrix(0.965926, 0.258819, -0.258819, 0.965926, 150.603, -93.2555);;animation:none"><path stroke-width="2" stroke-opacity="0" stroke="rgb(104, 7, 71)" fill="none" d="M -480 -58.3128 C 0 -58.3128 480 58.3128 960 58.3128 C 1440 58.3128 1920 -58.3128 2400 -58.3128 C 2880 -58.3128 3360 58.3128 3840 58.3128 C 4320 58.3128 4800 -58.3128 5280 -58.3128" transform="matrix(1,0,0,1,-307.19952392578125,0)" style="fill:none;stroke:rgb(104, 7, 71);transform:matrix(1, 0, 0, 1, -307.2, 0);;animation:none"></path></g>
<g transform="matrix(0.9659258262890683,0.25881904510252074,-0.25881904510252074,0.9659258262890683,150.60328180669262,535.934507709722)" style="transform:matrix(0.965926, 0.258819, -0.258819, 0.965926, 150.603, 535.935);;animation:none"><path stroke-width="2" stroke-opacity="0" stroke="rgb(104, 7, 71)" fill="none" d="M -480 -57.149 C 0 -57.149 480 57.149 960 57.149 C 1440 57.149 1920 -57.149 2400 -57.149 C 2880 -57.149 3360 57.149 3840 57.149 C 4320 57.149 4800 -57.149 5280 -57.149" transform="matrix(1,0,0,1,-322.55999755859375,0)" style="fill:none;stroke:rgb(104, 7, 71);transform:matrix(1, 0, 0, 1, -322.56, 0);;animation:none"></path></g>
<g transform="matrix(0.9659258262890683,0.25881904510252074,-0.25881904510252074,0.9659258262890683,150.60328180669262,-88.39549412133272)" style="transform:matrix(0.965926, 0.258819, -0.258819, 0.965926, 150.603, -88.3955);;animation:none"><path stroke-width="2" stroke-opacity="0" stroke="rgb(104, 7, 71)" fill="none" d="M -480 -55.9098 C 0 -55.9098 480 55.9098 960 55.9098 C 1440 55.9098 1920 -55.9098 2400 -55.9098 C 2880 -55.9098 3360 55.9098 3840 55.9098 C 4320 55.9098 4800 -55.9098 5280 -55.9098" transform="matrix(1,0,0,1,-337.9197692871094,0)" style="fill:none;stroke:rgb(104, 7, 71);transform:matrix(1, 0, 0, 1, -337.92, 0);;animation:none"></path></g>
<g transform="matrix(0.9659258262890683,0.25881904510252074,-0.25881904510252074,0.9659258262890683,150.60328180669262,531.0845321237845)" style="transform:matrix(0.965926, 0.258819, -0.258819, 0.965926, 150.603, 531.085);;animation:none"><path stroke-width="2" stroke-opacity="0" stroke="rgb(104, 7, 71)" fill="none" d="M -480 -54.5934 C 0 -54.5934 480 54.5934 960 54.5934 C 1440 54.5934 1920 -54.5934 2400 -54.5934 C 2880 -54.5934 3360 54.5934 3840 54.5934 C 4320 54.5934 4800 -54.5934 5280 -54.5934" transform="matrix(1,0,0,1,-353.2795104980469,0)" style="fill:none;stroke:rgb(104, 7, 71);transform:matrix(1, 0, 0, 1, -353.28, 0);;animation:none"></path></g>
<g transform="matrix(0.9659258262890683,0.25881904510252074,-0.25881904510252074,0.9659258262890683,150.60328180669262,-83.54550327660615)" style="transform:matrix(0.965926, 0.258819, -0.258819, 0.965926, 150.603, -83.5455);;animation:none"><path stroke-width="2" stroke-opacity="0" stroke="rgb(104, 7, 71)" fill="none" d="M -480 -53.198 C 0 -53.198 480 53.198 960 53.198 C 1440 53.198 1920 -53.198 2400 -53.198 C 2880 -53.198 3360 53.198 3840 53.198 C 4320 53.198 4800 -53.198 5280 -53.198" transform="matrix(1,0,0,1,-368.6400146484375,0)" style="fill:none;stroke:rgb(104, 7, 71);transform:matrix(1, 0, 0, 1, -368.64, 0);;animation:none"></path></g>
<g transform="matrix(0.9659258262890683,0.25881904510252074,-0.25881904510252074,0.9659258262890683,150.60328180669262,526.2244857370657)" style="transform:matrix(0.965926, 0.258819, -0.258819, 0.965926, 150.603, 526.224);;animation:none"><path stroke-width="2" stroke-opacity="0" stroke="rgb(104, 7, 71)" fill="none" d="M -480 -51.7223 C 0 -51.7223 480 51.7223 960 51.7223 C 1440 51.7223 1920 -51.7223 2400 -51.7223 C 2880 -51.7223 3360 51.7223 3840 51.7223 C 4320 51.7223 4800 -51.7223 5280 -51.7223" transform="matrix(1,0,0,1,-383.999755859375,0)" style="fill:none;stroke:rgb(104, 7, 71);transform:matrix(1, 0, 0, 1, -384, 0);;animation:none"></path></g>
<g transform="matrix(0.9659258262890683,0.25881904510252074,-0.25881904510252074,0.9659258262890683,150.60328180669262,-78.68550266625459)" style="transform:matrix(0.965926, 0.258819, -0.258819, 0.965926, 150.603, -78.6855);;animation:none"><path stroke-width="2" stroke-opacity="0" stroke="rgb(104, 7, 71)" fill="none" d="M -480 -50.1645 C 0 -50.1645 480 50.1645 960 50.1645 C 1440 50.1645 1920 -50.1645 2400 -50.1645 C 2880 -50.1645 3360 50.1645 3840 50.1645 C 4320 50.1645 4800 -50.1645 5280 -50.1645" transform="matrix(1,0,0,1,-399.3594970703125,0)" style="fill:none;stroke:rgb(104, 7, 71);transform:matrix(1, 0, 0, 1, -399.359, 0);;animation:none"></path></g>
<g transform="matrix(0.9659258262890683,0.25881904510252074,-0.25881904510252074,0.9659258262890683,150.60328180669262,521.3645003855032)" style="transform:matrix(0.965926, 0.258819, -0.258819, 0.965926, 150.603, 521.365);;animation:none"><path stroke-width="2" stroke-opacity="0" stroke="rgb(104, 7, 71)" fill="none" d="M -480 -48.5234 C 0 -48.5234 480 48.5234 960 48.5234 C 1440 48.5234 1920 -48.5234 2400 -48.5234 C 2880 -48.5234 3360 48.5234 3840 48.5234 C 4320 48.5234 4800 -48.5234 5280 -48.5234" transform="matrix(1,0,0,1,-414.719970703125,0)" style="fill:none;stroke:rgb(104, 7, 71);transform:matrix(1, 0, 0, 1, -414.72, 0);;animation:none"></path></g>
<g transform="matrix(0.9659258262890683,0.25881904510252074,-0.25881904510252074,0.9659258262890683,150.60328180669262,-73.82550205590303)" style="transform:matrix(0.965926, 0.258819, -0.258819, 0.965926, 150.603, -73.8255);;animation:none"><path stroke-width="2" stroke-opacity="0" stroke="rgb(104, 7, 71)" fill="none" d="M -480 -46.798 C 0 -46.798 480 46.798 960 46.798 C 1440 46.798 1920 -46.798 2400 -46.798 C 2880 -46.798 3360 46.798 3840 46.798 C 4320 46.798 4800 -46.798 5280 -46.798" transform="matrix(1,0,0,1,-430.07977294921875,0)" style="fill:none;stroke:rgb(104, 7, 71);transform:matrix(1, 0, 0, 1, -430.08, 0);;animation:none"></path></g>
<g transform="matrix(0.9659258262890683,0.25881904510252074,-0.25881904510252074,0.9659258262890683,150.60328180669262,516.5045150339407)" style="transform:matrix(0.965926, 0.258819, -0.258819, 0.965926, 150.603, 516.504);;animation:none"><path stroke-width="2" stroke-opacity="0" stroke="rgb(104, 7, 71)" fill="none" d="M -480 -44.9874 C 0 -44.9874 480 44.9874 960 44.9874 C 1440 44.9874 1920 -44.9874 2400 -44.9874 C 2880 -44.9874 3360 44.9874 3840 44.9874 C 4320 44.9874 4800 -44.9874 5280 -44.9874" transform="matrix(1,0,0,1,-445.43951416015625,0)" style="fill:none;stroke:rgb(104, 7, 71);transform:matrix(1, 0, 0, 1, -445.44, 0);;animation:none"></path></g>
<g transform="matrix(0.9659258262890683,0.25881904510252074,-0.25881904510252074,0.9659258262890683,150.60328180669262,-68.96550144555147)" style="transform:matrix(0.965926, 0.258819, -0.258819, 0.965926, 150.603, -68.9655);;animation:none"><path stroke-width="2" stroke-opacity="0" stroke="rgb(104, 7, 71)" fill="none" d="M -480 -43.0909 C 0 -43.0909 480 43.0909 960 43.0909 C 1440 43.0909 1920 -43.0909 2400 -43.0909 C 2880 -43.0909 3360 43.0909 3840 43.0909 C 4320 43.0909 4800 -43.0909 5280 -43.0909" transform="matrix(1,0,0,1,-460.79998779296875,0)" style="fill:none;stroke:rgb(104, 7, 71);transform:matrix(1, 0, 0, 1, -460.8, 0);;animation:none"></path></g>
<g transform="matrix(0.9659258262890683,0.25881904510252074,-0.25881904510252074,0.9659258262890683,150.60328180669262,511.6445296823782)" style="transform:matrix(0.965926, 0.258819, -0.258819, 0.965926, 150.603, 511.645);;animation:none"><path stroke-width="2" stroke-opacity="0" stroke="rgb(104, 7, 71)" fill="none" d="M -480 -41.1085 C 0 -41.1085 480 41.1085 960 41.1085 C 1440 41.1085 1920 -41.1085 2400 -41.1085 C 2880 -41.1085 3360 41.1085 3840 41.1085 C 4320 41.1085 4800 -41.1085 5280 -41.1085" transform="matrix(1,0,0,1,-476.1597900390625,0)" style="fill:none;stroke:rgb(104, 7, 71);transform:matrix(1, 0, 0, 1, -476.16, 0);;animation:none"></path></g>
<g transform="matrix(0.9659258262890683,0.25881904510252074,-0.25881904510252074,0.9659258262890683,150.60328180669262,-64.1055008351999)" style="transform:matrix(0.965926, 0.258819, -0.258819, 0.965926, 150.603, -64.1055);;animation:none"><path stroke-width="2" stroke-opacity="0" stroke="rgb(104, 7, 71)" fill="none" d="M -480 -39.0402 C 0 -39.0402 480 39.0402 960 39.0402 C 1440 39.0402 1920 -39.0402 2400 -39.0402 C 2880 -39.0402 3360 39.0402 3840 39.0402 C 4320 39.0402 4800 -39.0402 5280 -39.0402" transform="matrix(1,0,0,1,-491.51953125,0)" style="fill:none;stroke:rgb(104, 7, 71);transform:matrix(1, 0, 0, 1, -491.52, 0);;animation:none"></path></g>
<g transform="matrix(0.9659258262890683,0.25881904510252074,-0.25881904510252074,0.9659258262890683,150.60328180669262,506.78448329565947)" style="transform:matrix(0.965926, 0.258819, -0.258819, 0.965926, 150.603, 506.784);;animation:none"><path stroke-width="2" stroke-opacity="0" stroke="rgb(104, 7, 71)" fill="none" d="M -480 -36.8866 C 0 -36.8866 480 36.8866 960 36.8866 C 1440 36.8866 1920 -36.8866 2400 -36.8866 C 2880 -36.8866 3360 36.8866 3840 36.8866 C 4320 36.8866 4800 -36.8866 5280 -36.8866" transform="matrix(1,0,0,1,-506.8800048828125,0)" style="fill:none;stroke:rgb(104, 7, 71);transform:matrix(1, 0, 0, 1, -506.88, 0);;animation:none"></path></g>
<g transform="matrix(0.9659258262890683,0.25881904510252074,-0.25881904510252074,0.9659258262890683,150.60328180669262,-59.24550022484834)" style="transform:matrix(0.965926, 0.258819, -0.258819, 0.965926, 150.603, -59.2455);;animation:none"><path stroke-width="2" stroke-opacity="0" stroke="rgb(104, 7, 71)" fill="none" d="M -480 -34.6489 C 0 -34.6489 480 34.6489 960 34.6489 C 1440 34.6489 1920 -34.6489 2400 -34.6489 C 2880 -34.6489 3360 34.6489 3840 34.6489 C 4320 34.6489 4800 -34.6489 5280 -34.6489" transform="matrix(1,0,0,1,-522.23974609375,0)" style="fill:none;stroke:rgb(104, 7, 71);transform:matrix(1, 0, 0, 1, -522.24, 0);;animation:none"></path></g>
<g transform="matrix(0.9659258262890683,0.25881904510252074,-0.25881904510252074,0.9659258262890683,150.60328180669262,501.92449794409697)" style="transform:matrix(0.965926, 0.258819, -0.258819, 0.965926, 150.603, 501.924);;animation:none"><path stroke-width="2" stroke-opacity="0" stroke="rgb(104, 7, 71)" fill="none" d="M -480 -32.329 C 0 -32.329 480 32.329 960 32.329 C 1440 32.329 1920 -32.329 2400 -32.329 C 2880 -32.329 3360 32.329 3840 32.329 C 4320 32.329 4800 -32.329 5280 -32.329" transform="matrix(1,0,0,1,-537.5995483398438,0)" style="fill:none;stroke:rgb(104, 7, 71);transform:matrix(1, 0, 0, 1, -537.6, 0);;animation:none"></path></g>
<g transform="matrix(0.9659258262890683,0.25881904510252074,-0.25881904510252074,0.9659258262890683,150.60328180669262,-54.38549961449678)" style="transform:matrix(0.965926, 0.258819, -0.258819, 0.965926, 150.603, -54.3855);;animation:none"><path stroke-width="2" stroke-opacity="0" stroke="rgb(104, 7, 71)" fill="none" d="M -480 -29.9288 C 0 -29.9288 480 29.9288 960 29.9288 C 1440 29.9288 1920 -29.9288 2400 -29.9288 C 2880 -29.9288 3360 29.9288 3840 29.9288 C 4320 29.9288 4800 -29.9288 5280 -29.9288" transform="matrix(1,0,0,1,-552.9600219726562,0)" style="fill:none;stroke:rgb(104, 7, 71);transform:matrix(1, 0, 0, 1, -552.96, 0);;animation:none"></path></g>
<g transform="matrix(0.9659258262890683,0.25881904510252074,-0.25881904510252074,0.9659258262890683,150.60328180669262,497.06451259253447)" style="transform:matrix(0.965926, 0.258819, -0.258819, 0.965926, 150.603, 497.065);;animation:none"><path stroke-width="2" stroke-opacity="0" stroke="rgb(104, 7, 71)" fill="none" d="M -480 -27.4518 C 0 -27.4518 480 27.4518 960 27.4518 C 1440 27.4518 1920 -27.4518 2400 -27.4518 C 2880 -27.4518 3360 27.4518 3840 27.4518 C 4320 27.4518 4800 -27.4518 5280 -27.4518" transform="matrix(1,0,0,1,-568.3197631835938,0)" style="fill:none;stroke:rgb(104, 7, 71);transform:matrix(1, 0, 0, 1, -568.32, 0);;animation:none"></path></g>
<g transform="matrix(0.9659258262890683,0.25881904510252074,-0.25881904510252074,0.9659258262890683,150.60328180669262,-49.535493510981155)" style="transform:matrix(0.965926, 0.258819, -0.258819, 0.965926, 150.603, -49.5355);;animation:none"><path stroke-width="2" stroke-opacity="0" stroke="rgb(104, 7, 71)" fill="none" d="M -480 -24.9015 C 0 -24.9015 480 24.9015 960 24.9015 C 1440 24.9015 1920 -24.9015 2400 -24.9015 C 2880 -24.9015 3360 24.9015 3840 24.9015 C 4320 24.9015 4800 -24.9015 5280 -24.9015" transform="matrix(1,0,0,1,-583.6795654296875,0)" style="fill:none;stroke:rgb(104, 7, 71);transform:matrix(1, 0, 0, 1, -583.68, 0);;animation:none"></path></g>
<g transform="matrix(0.9659258262890683,0.25881904510252074,-0.25881904510252074,0.9659258262890683,150.60328180669262,492.2144759714407)" style="transform:matrix(0.965926, 0.258819, -0.258819, 0.965926, 150.603, 492.214);;animation:none"><path stroke-width="2" stroke-opacity="0" stroke="rgb(104, 7, 71)" fill="none" d="M -480 -22.2823 C 0 -22.2823 480 22.2823 960 22.2823 C 1440 22.2823 1920 -22.2823 2400 -22.2823 C 2880 -22.2823 3360 22.2823 3840 22.2823 C 4320 22.2823 4800 -22.2823 5280 -22.2823" transform="matrix(1,0,0,1,-599.0400390625,0)" style="fill:none;stroke:rgb(104, 7, 71);transform:matrix(1, 0, 0, 1, -599.04, 0);;animation:none"></path></g>
<g transform="matrix(0.9659258262890683,0.25881904510252074,-0.25881904510252074,0.9659258262890683,150.60328180669262,-44.67549290062959)" style="transform:matrix(0.965926, 0.258819, -0.258819, 0.965926, 150.603, -44.6755);;animation:none"><path stroke-width="2" stroke-opacity="0" stroke="rgb(104, 7, 71)" fill="none" d="M -480 -19.5998 C 0 -19.5998 480 19.5998 960 19.5998 C 1440 19.5998 1920 -19.5998 2400 -19.5998 C 2880 -19.5998 3360 19.5998 3840 19.5998 C 4320 19.5998 4800 -19.5998 5280 -19.5998" transform="matrix(1,0,0,1,-614.3997802734375,0)" style="fill:none;stroke:rgb(104, 7, 71);transform:matrix(1, 0, 0, 1, -614.4, 0);;animation:none"></path></g>
<g transform="matrix(0.9659258262890683,0.25881904510252074,-0.25881904510252074,0.9659258262890683,150.60328180669262,487.3544906198782)" style="transform:matrix(0.965926, 0.258819, -0.258819, 0.965926, 150.603, 487.355);;animation:none"><path stroke-width="2" stroke-opacity="0" stroke="rgb(104, 7, 71)" fill="none" d="M -480 -16.8597 C 0 -16.8597 480 16.8597 960 16.8597 C 1440 16.8597 1920 -16.8597 2400 -16.8597 C 2880 -16.8597 3360 16.8597 3840 16.8597 C 4320 16.8597 4800 -16.8597 5280 -16.8597" transform="matrix(1,0,0,1,-629.759521484375,0)" style="fill:none;stroke:rgb(104, 7, 71);transform:matrix(1, 0, 0, 1, -629.76, 0);;animation:none"></path></g>
<g transform="matrix(0.9659258262890683,0.25881904510252074,-0.25881904510252074,0.9659258262890683,150.60328180669262,-39.81549229027803)" style="transform:matrix(0.965926, 0.258819, -0.258819, 0.965926, 150.603, -39.8155);;animation:none"><path stroke-width="2" stroke-opacity="0" stroke="rgb(104, 7, 71)" fill="none" d="M -480 -14.0688 C 0 -14.0688 480 14.0688 960 14.0688 C 1440 14.0688 1920 -14.0688 2400 -14.0688 C 2880 -14.0688 3360 14.0688 3840 14.0688 C 4320 14.0688 4800 -14.0688 5280 -14.0688" transform="matrix(1,0,0,1,-645.1199951171875,0)" style="fill:none;stroke:rgb(104, 7, 71);transform:matrix(1, 0, 0, 1, -645.12, 0);;animation:none"></path></g>
<g transform="matrix(0.9659258262890683,0.25881904510252074,-0.25881904510252074,0.9659258262890683,150.60328180669262,482.4945052683157)" style="transform:matrix(0.965926, 0.258819, -0.258819, 0.965926, 150.603, 482.494);;animation:none"><path stroke-width="2" stroke-opacity="0" stroke="rgb(104, 7, 71)" fill="none" d="M -480 -11.2348 C 0 -11.2348 480 11.2348 960 11.2348 C 1440 11.2348 1920 -11.2348 2400 -11.2348 C 2880 -11.2348 3360 11.2348 3840 11.2348 C 4320 11.2348 4800 -11.2348 5280 -11.2348" transform="matrix(1,0,0,1,-660.479736328125,0)" style="fill:none;stroke:rgb(104, 7, 71);transform:matrix(1, 0, 0, 1, -660.48, 0);;animation:none"></path></g>
<g transform="matrix(0.9659258262890683,0.25881904510252074,-0.25881904510252074,0.9659258262890683,150.60328180669262,-34.95549167992647)" style="transform:matrix(0.965926, 0.258819, -0.258819, 0.965926, 150.603, -34.9555);;animation:none"><path stroke-width="2" stroke-opacity="0" stroke="rgb(104, 7, 71)" fill="none" d="M -480 -8.36555 C 0 -8.36555 480 8.36555 960 8.36555 C 1440 8.36555 1920 -8.36555 2400 -8.36555 C 2880 -8.36555 3360 8.36555 3840 8.36555 C 4320 8.36555 4800 -8.36555 5280 -8.36555" transform="matrix(1,0,0,1,-675.8395385742188,0)" style="fill:none;stroke:rgb(104, 7, 71);transform:matrix(1, 0, 0, 1, -675.84, 0);;animation:none"></path></g>
<g transform="matrix(0.9659258262890683,0.25881904510252074,-0.25881904510252074,0.9659258262890683,150.60328180669262,477.6345199167532)" style="transform:matrix(0.965926, 0.258819, -0.258819, 0.965926, 150.603, 477.635);;animation:none"><path stroke-width="2" stroke-opacity="0" stroke="rgb(104, 7, 71)" fill="none" d="M -480 -5.46964 C 0 -5.46964 480 5.46964 960 5.46964 C 1440 5.46964 1920 -5.46964 2400 -5.46964 C 2880 -5.46964 3360 5.46964 3840 5.46964 C 4320 5.46964 4800 -5.46964 5280 -5.46964" transform="matrix(1,0,0,1,-691.2000122070312,0)" style="fill:none;stroke:rgb(104, 7, 71);transform:matrix(1, 0, 0, 1, -691.2, 0);;animation:none"></path></g>
<g transform="matrix(0.9659258262890683,0.25881904510252074,-0.25881904510252074,0.9659258262890683,150.60328180669262,-30.095491069574905)" style="transform:matrix(0.965926, 0.258819, -0.258819, 0.965926, 150.603, -30.0955);;animation:none"><path stroke-width="2" stroke-opacity="0.022727272727272728" stroke="rgb(104, 7, 71)" fill="none" d="M -480 -2.55632 C 0 -2.55632 480 2.55632 960 2.55632 C 1440 2.55632 1920 -2.55632 2400 -2.55632 C 2880 -2.55632 3360 2.55632 3840 2.55632 C 4320 2.55632 4800 -2.55632 5280 -2.55632" transform="matrix(1,0,0,1,-706.5597534179688,0)" style="fill:none;stroke:rgb(104, 7, 71);transform:matrix(1, 0, 0, 1, -706.56, 0);;animation:none"></path></g>
<g transform="matrix(0.9659258262890683,0.25881904510252074,-0.25881904510252074,0.9659258262890683,150.60328180669262,472.77447353003447)" style="transform:matrix(0.965926, 0.258819, -0.258819, 0.965926, 150.603, 472.774);;animation:none"><path stroke-width="2" stroke-opacity="0.045454545454545456" stroke="rgb(104, 7, 71)" fill="none" d="M -480 0.365242 C 0 0.365242 480 -0.365242 960 -0.365242 C 1440 -0.365242 1920 0.365242 2400 0.365242 C 2880 0.365242 3360 -0.365242 3840 -0.365242 C 4320 -0.365242 4800 0.365242 5280 0.365242" transform="matrix(1,0,0,1,-721.9194946289062,0)" style="fill:none;stroke:rgb(104, 7, 71);transform:matrix(1, 0, 0, 1, -721.919, 0);;animation:none"></path></g>
<g transform="matrix(0.9659258262890683,0.25881904510252074,-0.25881904510252074,0.9659258262890683,150.60328180669262,-25.235490459223342)" style="transform:matrix(0.965926, 0.258819, -0.258819, 0.965926, 150.603, -25.2355);;animation:none"><path stroke-width="2" stroke-opacity="0.06818181818181818" stroke="rgb(104, 7, 71)" fill="none" d="M -480 3.28576 C 0 3.28576 480 -3.28576 960 -3.28576 C 1440 -3.28576 1920 3.28576 2400 3.28576 C 2880 3.28576 3360 -3.28576 3840 -3.28576 C 4320 -3.28576 4800 3.28576 5280 3.28576" transform="matrix(1,0,0,1,-737.280029296875,0)" style="fill:none;stroke:rgb(104, 7, 71);transform:matrix(1, 0, 0, 1, -737.28, 0);;animation:none"></path></g>
<g transform="matrix(0.9659258262890683,0.25881904510252074,-0.25881904510252074,0.9659258262890683,150.60328180669262,467.91448817847197)" style="transform:matrix(0.965926, 0.258819, -0.258819, 0.965926, 150.603, 467.914);;animation:none"><path stroke-width="2" stroke-opacity="0.09090909090909091" stroke="rgb(104, 7, 71)" fill="none" d="M -480 6.19556 C 0 6.19556 480 -6.19556 960 -6.19556 C 1440 -6.19556 1920 6.19556 2400 6.19556 C 2880 6.19556 3360 -6.19556 3840 -6.19556 C 4320 -6.19556 4800 6.19556 5280 6.19556" transform="matrix(1,0,0,1,-752.6397705078125,0)" style="fill:none;stroke:rgb(104, 7, 71);transform:matrix(1, 0, 0, 1, -752.64, 0);;animation:none"></path></g>
<g transform="matrix(0.9659258262890683,0.25881904510252074,-0.25881904510252074,0.9659258262890683,150.60328180669262,-20.37548984887178)" style="transform:matrix(0.965926, 0.258819, -0.258819, 0.965926, 150.603, -20.3755);;animation:none"><path stroke-width="2" stroke-opacity="0.11363636363636363" stroke="rgb(104, 7, 71)" fill="none" d="M -480 9.08552 C 0 9.08552 480 -9.08552 960 -9.08552 C 1440 -9.08552 1920 9.08552 2400 9.08552 C 2880 9.08552 3360 -9.08552 3840 -9.08552 C 4320 -9.08552 4800 9.08552 5280 9.08552" transform="matrix(1,0,0,1,-767.99951171875,0)" style="fill:none;stroke:rgb(104, 7, 71);transform:matrix(1, 0, 0, 1, -768, 0);;animation:none"></path></g>
<g transform="matrix(0.9659258262890683,0.25881904510252074,-0.25881904510252074,0.9659258262890683,150.60328180669262,463.05450282690947)" style="transform:matrix(0.965926, 0.258819, -0.258819, 0.965926, 150.603, 463.055);;animation:none"><path stroke-width="2" stroke-opacity="0.13636363636363635" stroke="rgb(104, 7, 71)" fill="none" d="M -480 11.9469 C 0 11.9469 480 -11.9469 960 -11.9469 C 1440 -11.9469 1920 11.9469 2400 11.9469 C 2880 11.9469 3360 -11.9469 3840 -11.9469 C 4320 -11.9469 4800 11.9469 5280 11.9469" transform="matrix(1,0,0,1,-783.3600463867188,0)" style="fill:none;stroke:rgb(104, 7, 71);transform:matrix(1, 0, 0, 1, -783.36, 0);;animation:none"></path></g>
<g transform="matrix(0.9659258262890683,0.25881904510252074,-0.25881904510252074,0.9659258262890683,150.60328180669262,-15.51550449730928)" style="transform:matrix(0.965926, 0.258819, -0.258819, 0.965926, 150.603, -15.5155);;animation:none"><path stroke-width="2" stroke-opacity="0.1590909090909091" stroke="rgb(104, 7, 71)" fill="none" d="M -480 14.7708 C 0 14.7708 480 -14.7708 960 -14.7708 C 1440 -14.7708 1920 14.7708 2400 14.7708 C 2880 14.7708 3360 -14.7708 3840 -14.7708 C 4320 -14.7708 4800 14.7708 5280 14.7708" transform="matrix(1,0,0,1,-798.7197875976562,0)" style="fill:none;stroke:rgb(104, 7, 71);transform:matrix(1, 0, 0, 1, -798.72, 0);;animation:none"></path></g>
<g transform="matrix(0.9659258262890683,0.25881904510252074,-0.25881904510252074,0.9659258262890683,150.60328180669262,458.20452724097197)" style="transform:matrix(0.965926, 0.258819, -0.258819, 0.965926, 150.603, 458.205);;animation:none"><path stroke-width="2" stroke-opacity="0.18181818181818182" stroke="rgb(104, 7, 71)" fill="none" d="M -480 17.5496 C 0 17.5496 480 -17.5496 960 -17.5496 C 1440 -17.5496 1920 17.5496 2400 17.5496 C 2880 17.5496 3360 -17.5496 3840 -17.5496 C 4320 -17.5496 4800 17.5496 5280 17.5496" transform="matrix(1,0,0,1,-814.0795288085938,0)" style="fill:none;stroke:rgb(104, 7, 71);transform:matrix(1, 0, 0, 1, -814.08, 0);;animation:none"></path></g>
<g transform="matrix(0.9659258262890683,0.25881904510252074,-0.25881904510252074,0.9659258262890683,150.60328180669262,-10.665498393793655)" style="transform:matrix(0.965926, 0.258819, -0.258819, 0.965926, 150.603, -10.6655);;animation:none"><path stroke-width="2" stroke-opacity="0.20454545454545456" stroke="rgb(104, 7, 71)" fill="none" d="M -480 20.276 C 0 20.276 480 -20.276 960 -20.276 C 1440 -20.276 1920 20.276 2400 20.276 C 2880 20.276 3360 -20.276 3840 -20.276 C 4320 -20.276 4800 20.276 5280 20.276" transform="matrix(1,0,0,1,-829.43994140625,0)" style="fill:none;stroke:rgb(104, 7, 71);transform:matrix(1, 0, 0, 1, -829.44, 0);;animation:none"></path></g>
<g transform="matrix(0.9659258262890683,0.25881904510252074,-0.25881904510252074,0.9659258262890683,150.60328180669262,453.3444808542532)" style="transform:matrix(0.965926, 0.258819, -0.258819, 0.965926, 150.603, 453.345);;animation:none"><path stroke-width="2" stroke-opacity="0.22727272727272727" stroke="rgb(104, 7, 71)" fill="none" d="M -480 22.9432 C 0 22.9432 480 -22.9432 960 -22.9432 C 1440 -22.9432 1920 22.9432 2400 22.9432 C 2880 22.9432 3360 -22.9432 3840 -22.9432 C 4320 -22.9432 4800 22.9432 5280 22.9432" transform="matrix(1,0,0,1,-844.7998046875,0)" style="fill:none;stroke:rgb(104, 7, 71);transform:matrix(1, 0, 0, 1, -844.8, 0);;animation:none"></path></g>
<g transform="matrix(0.9659258262890683,0.25881904510252074,-0.25881904510252074,0.9659258262890683,150.60328180669262,-5.805497783442092)" style="transform:matrix(0.965926, 0.258819, -0.258819, 0.965926, 150.603, -5.80548);;animation:none"><path stroke-width="2" stroke-opacity="0.25" stroke="rgb(104, 7, 71)" fill="none" d="M -480 25.5456 C 0 25.5456 480 -25.5456 960 -25.5456 C 1440 -25.5456 1920 25.5456 2400 25.5456 C 2880 25.5456 3360 -25.5456 3840 -25.5456 C 4320 -25.5456 4800 25.5456 5280 25.5456" transform="matrix(1,0,0,1,-860.1595458984375,0)" style="fill:none;stroke:rgb(104, 7, 71);transform:matrix(1, 0, 0, 1, -860.16, 0);;animation:none"></path></g>
<g transform="matrix(0.9659258262890683,0.25881904510252074,-0.25881904510252074,0.9659258262890683,150.60328180669262,448.4844955026907)" style="transform:matrix(0.965926, 0.258819, -0.258819, 0.965926, 150.603, 448.484);;animation:none"><path stroke-width="2" stroke-opacity="0.2727272727272727" stroke="rgb(104, 7, 71)" fill="none" d="M -480 28.0781 C 0 28.0781 480 -28.0781 960 -28.0781 C 1440 -28.0781 1920 28.0781 2400 28.0781 C 2880 28.0781 3360 -28.0781 3840 -28.0781 C 4320 -28.0781 4800 28.0781 5280 28.0781" transform="matrix(1,0,0,1,-875.5199584960938,0)" style="fill:none;stroke:rgb(104, 7, 71);transform:matrix(1, 0, 0, 1, -875.52, 0);;animation:none"></path></g>
<g transform="matrix(0.9659258262890683,0.25881904510252074,-0.25881904510252074,0.9659258262890683,150.60328180669262,-0.9454971730905299)" style="transform:matrix(0.965926, 0.258819, -0.258819, 0.965926, 150.603, -0.945497);;animation:none"><path stroke-width="2" stroke-opacity="0.29545454545454547" stroke="rgb(104, 7, 71)" fill="none" d="M -480 30.5362 C 0 30.5362 480 -30.5362 960 -30.5362 C 1440 -30.5362 1920 30.5362 2400 30.5362 C 2880 30.5362 3360 -30.5362 3840 -30.5362 C 4320 -30.5362 4800 30.5362 5280 30.5362" transform="matrix(1,0,0,1,-890.8798217773438,0)" style="fill:none;stroke:rgb(104, 7, 71);transform:matrix(1, 0, 0, 1, -890.88, 0);;animation:none"></path></g>
<g transform="matrix(0.9659258262890683,0.25881904510252074,-0.25881904510252074,0.9659258262890683,150.60328180669262,443.6245101511282)" style="transform:matrix(0.965926, 0.258819, -0.258819, 0.965926, 150.603, 443.625);;animation:none"><path stroke-width="2" stroke-opacity="0.3181818181818182" stroke="rgb(104, 7, 71)" fill="none" d="M -480 32.9164 C 0 32.9164 480 -32.9164 960 -32.9164 C 1440 -32.9164 1920 32.9164 2400 32.9164 C 2880 32.9164 3360 -32.9164 3840 -32.9164 C 4320 -32.9164 4800 32.9164 5280 32.9164" transform="matrix(1,0,0,1,-906.2395629882812,0)" style="fill:none;stroke:rgb(104, 7, 71);transform:matrix(1, 0, 0, 1, -906.24, 0);;animation:none"></path></g>
<g transform="matrix(0.9659258262890683,0.25881904510252074,-0.25881904510252074,0.9659258262890683,150.60328180669262,3.9145034372610326)" style="transform:matrix(0.965926, 0.258819, -0.258819, 0.965926, 150.603, 3.91449);;animation:none"><path stroke-width="2" stroke-opacity="0.3409090909090909" stroke="rgb(104, 7, 71)" fill="none" d="M -480 35.2161 C 0 35.2161 480 -35.2161 960 -35.2161 C 1440 -35.2161 1920 35.2161 2400 35.2161 C 2880 35.2161 3360 -35.2161 3840 -35.2161 C 4320 -35.2161 4800 35.2161 5280 35.2161" transform="matrix(1,0,0,1,-921.5999755859375,0)" style="fill:none;stroke:rgb(104, 7, 71);transform:matrix(1, 0, 0, 1, -921.6, 0);;animation:none"></path></g>
<g transform="matrix(0.9659258262890683,0.25881904510252074,-0.25881904510252074,0.9659258262890683,150.60328180669262,438.7645247995657)" style="transform:matrix(0.965926, 0.258819, -0.258819, 0.965926, 150.603, 438.764);;animation:none"><path stroke-width="2" stroke-opacity="0.36363636363636365" stroke="rgb(104, 7, 71)" fill="none" d="M -480 37.4328 C 0 37.4328 480 -37.4328 960 -37.4328 C 1440 -37.4328 1920 37.4328 2400 37.4328 C 2880 37.4328 3360 -37.4328 3840 -37.4328 C 4320 -37.4328 4800 37.4328 5280 37.4328" transform="matrix(1,0,0,1,-936.959716796875,0)" style="fill:none;stroke:rgb(104, 7, 71);transform:matrix(1, 0, 0, 1, -936.96, 0);;animation:none"></path></g>
<g transform="matrix(0.9659258262890683,0.25881904510252074,-0.25881904510252074,0.9659258262890683,150.60328180669262,8.774504047612595)" style="transform:matrix(0.965926, 0.258819, -0.258819, 0.965926, 150.603, 8.77447);;animation:none"><path stroke-width="2" stroke-opacity="0.38636363636363635" stroke="rgb(104, 7, 71)" fill="none" d="M -480 39.5652 C 0 39.5652 480 -39.5652 960 -39.5652 C 1440 -39.5652 1920 39.5652 2400 39.5652 C 2880 39.5652 3360 -39.5652 3840 -39.5652 C 4320 -39.5652 4800 39.5652 5280 39.5652" transform="matrix(1,0,0,1,-952.319580078125,0)" style="fill:none;stroke:rgb(104, 7, 71);transform:matrix(1, 0, 0, 1, -952.32, 0);;animation:none"></path></g>
<g transform="matrix(0.9659258262890683,0.25881904510252074,-0.25881904510252074,0.9659258262890683,150.60328180669262,433.90447841284697)" style="transform:matrix(0.965926, 0.258819, -0.258819, 0.965926, 150.603, 433.904);;animation:none"><path stroke-width="2" stroke-opacity="0.4090909090909091" stroke="rgb(104, 7, 71)" fill="none" d="M -480 41.6121 C 0 41.6121 480 -41.6121 960 -41.6121 C 1440 -41.6121 1920 41.6121 2400 41.6121 C 2880 41.6121 3360 -41.6121 3840 -41.6121 C 4320 -41.6121 4800 41.6121 5280 41.6121" transform="matrix(1,0,0,1,-967.6799926757812,0)" style="fill:none;stroke:rgb(104, 7, 71);transform:matrix(1, 0, 0, 1, -967.68, 0);;animation:none"></path></g>
<g transform="matrix(0.9659258262890683,0.25881904510252074,-0.25881904510252074,0.9659258262890683,150.60328180669262,13.634504657964158)" style="transform:matrix(0.965926, 0.258819, -0.258819, 0.965926, 150.603, 13.6345);;animation:none"><path stroke-width="2" stroke-opacity="0.4318181818181818" stroke="rgb(104, 7, 71)" fill="none" d="M -480 43.5731 C 0 43.5731 480 -43.5731 960 -43.5731 C 1440 -43.5731 1920 43.5731 2400 43.5731 C 2880 43.5731 3360 -43.5731 3840 -43.5731 C 4320 -43.5731 4800 43.5731 5280 43.5731" transform="matrix(1,0,0,1,-983.0397338867188,0)" style="fill:none;stroke:rgb(104, 7, 71);transform:matrix(1, 0, 0, 1, -983.04, 0);;animation:none"></path></g>
<g transform="matrix(0.9659258262890683,0.25881904510252074,-0.25881904510252074,0.9659258262890683,150.60328180669262,429.04449306128447)" style="transform:matrix(0.965926, 0.258819, -0.258819, 0.965926, 150.603, 429.044);;animation:none"><path stroke-width="2" stroke-opacity="0.45454545454545453" stroke="rgb(104, 7, 71)" fill="none" d="M -480 45.448 C 0 45.448 480 -45.448 960 -45.448 C 1440 -45.448 1920 45.448 2400 45.448 C 2880 45.448 3360 -45.448 3840 -45.448 C 4320 -45.448 4800 45.448 5280 45.448" transform="matrix(1,0,0,1,-998.3995361328125,0)" style="fill:none;stroke:rgb(104, 7, 71);transform:matrix(1, 0, 0, 1, -998.4, 0);;animation:none"></path></g>
<g transform="matrix(0.9659258262890683,0.25881904510252074,-0.25881904510252074,0.9659258262890683,150.60328180669262,18.49450526831572)" style="transform:matrix(0.965926, 0.258819, -0.258819, 0.965926, 150.603, 18.4945);;animation:none"><path stroke-width="2" stroke-opacity="0.4772727272727273" stroke="rgb(104, 7, 71)" fill="none" d="M -480 47.2373 C 0 47.2373 480 -47.2373 960 -47.2373 C 1440 -47.2373 1920 47.2373 2400 47.2373 C 2880 47.2373 3360 -47.2373 3840 -47.2373 C 4320 -47.2373 4800 47.2373 5280 47.2373" transform="matrix(1,0,0,1,-1013.760009765625,0)" style="fill:none;stroke:rgb(104, 7, 71);transform:matrix(1, 0, 0, 1, -1013.76, 0);;animation:none"></path></g>
<g transform="matrix(0.9659258262890683,0.25881904510252074,-0.25881904510252074,0.9659258262890683,150.60328180669262,424.18450770972197)" style="transform:matrix(0.965926, 0.258819, -0.258819, 0.965926, 150.603, 424.185);;animation:none"><path stroke-width="2" stroke-opacity="0.5" stroke="rgb(104, 7, 71)" fill="none" d="M -480 48.9415 C 0 48.9415 480 -48.9415 960 -48.9415 C 1440 -48.9415 1920 48.9415 2400 48.9415 C 2880 48.9415 3360 -48.9415 3840 -48.9415 C 4320 -48.9415 4800 48.9415 5280 48.9415" transform="matrix(1,0,0,1,-1029.1197509765625,0)" style="fill:none;stroke:rgb(104, 7, 71);transform:matrix(1, 0, 0, 1, -1029.12, 0);;animation:none"></path></g>
<g transform="matrix(0.9659258262890683,0.25881904510252074,-0.25881904510252074,0.9659258262890683,150.60328180669262,414.4744857370657)" style="transform:matrix(0.965926, 0.258819, -0.258819, 0.965926, 150.603, 414.474);;animation:none"><path stroke-width="2" stroke-opacity="0.5909090909090909" stroke="rgb(104, 7, 71)" fill="none" d="M -480 54.9298 C 0 54.9298 480 -54.9298 960 -54.9298 C 1440 -54.9298 1920 54.9298 2400 54.9298 C 2880 54.9298 3360 -54.9298 3840 -54.9298 C 4320 -54.9298 4800 54.9298 5280 54.9298" transform="matrix(1,0,0,1,-1090.5594482421875,0)" style="fill:none;stroke:rgb(104, 7, 71);transform:matrix(1, 0, 0, 1, -1090.56, 0);;animation:none"></path></g>
<g transform="matrix(0.9659258262890683,0.25881904510252074,-0.25881904510252074,0.9659258262890683,150.60328180669262,33.06451259253447)" style="transform:matrix(0.965926, 0.258819, -0.258819, 0.965926, 150.603, 33.0645);;animation:none"><path stroke-width="2" stroke-opacity="0.6136363636363636" stroke="rgb(104, 7, 71)" fill="none" d="M -480 56.2268 C 0 56.2268 480 -56.2268 960 -56.2268 C 1440 -56.2268 1920 56.2268 2400 56.2268 C 2880 56.2268 3360 -56.2268 3840 -56.2268 C 4320 -56.2268 4800 56.2268 5280 56.2268" transform="matrix(1,0,0,1,-1105.9200439453125,0)" style="fill:none;stroke:rgb(104, 7, 71);transform:matrix(1, 0, 0, 1, -1105.92, 0);;animation:none"></path></g>
<g transform="matrix(0.9659258262890683,0.25881904510252074,-0.25881904510252074,0.9659258262890683,150.60328180669262,409.6145003855032)" style="transform:matrix(0.965926, 0.258819, -0.258819, 0.965926, 150.603, 409.615);;animation:none"><path stroke-width="2" stroke-opacity="0.6363636363636364" stroke="rgb(104, 7, 71)" fill="none" d="M -480 57.4469 C 0 57.4469 480 -57.4469 960 -57.4469 C 1440 -57.4469 1920 57.4469 2400 57.4469 C 2880 57.4469 3360 -57.4469 3840 -57.4469 C 4320 -57.4469 4800 57.4469 5280 57.4469" transform="matrix(1,0,0,1,-1121.27978515625,0)" style="fill:none;stroke:rgb(104, 7, 71);transform:matrix(1, 0, 0, 1, -1121.28, 0);;animation:none"></path></g>
  <g></g></g><!-- [ldio] generated by https://loading.io --></svg>